<svg width="16" height="16" viewBox="0 0 16 16" fill="none" xmlns="http://www.w3.org/2000/svg">
<g clip-path="url(#clip0_3362_1801)">
<path d="M15.8099 8.14974C15.8099 7.49422 15.7567 7.01587 15.6416 6.51981H8.15625V9.47847H12.55C12.4614 10.2137 11.9831 11.321 10.92 12.0651L10.9051 12.1641L13.2719 13.9976L13.4358 14.014C14.9417 12.6232 15.8099 10.5769 15.8099 8.14974Z" fill="#4285F4"/>
<path d="M8.15534 15.9451C10.3079 15.9451 12.115 15.2364 13.4349 14.014L10.9191 12.0651C10.2459 12.5346 9.34233 12.8623 8.15534 12.8623C6.04707 12.8623 4.25769 11.4716 3.61983 9.54937L3.52633 9.55731L1.06539 11.4619L1.0332 11.5513C2.34423 14.1557 5.03717 15.9451 8.15534 15.9451Z" fill="#34A853"/>
<path d="M3.6206 9.54937C3.4523 9.05331 3.35489 8.52177 3.35489 7.97258C3.35489 7.42332 3.4523 6.89184 3.61175 6.39578L3.60729 6.29013L1.1155 4.35499L1.03398 4.39377C0.49364 5.4745 0.183594 6.68812 0.183594 7.97258C0.183594 9.25703 0.49364 10.4706 1.03398 11.5513L3.6206 9.54937Z" fill="#FBBC05"/>
<path d="M8.15534 3.08274C9.65238 3.08274 10.6622 3.7294 11.238 4.2698L13.488 2.07291C12.1062 0.788454 10.3079 5.72205e-05 8.15534 5.72205e-05C5.03717 5.72205e-05 2.34423 1.78943 1.0332 4.39377L3.61097 6.39578C4.25769 4.47352 6.04707 3.08274 8.15534 3.08274Z" fill="#EB4335"/>
</g>
<defs>
<clipPath id="clip0_3362_1801">
<rect width="16" height="16" fill="white"/>
</clipPath>
</defs>
</svg>
