<svg width="18" height="18" viewBox="0 0 18 18" fill="none" xmlns="http://www.w3.org/2000/svg">
<path d="M8.98711 0.675003C4.38711 0.675003 0.662109 4.4 0.662109 9C0.662109 12.525 2.84961 15.5375 5.94961 16.75C5.87461 16.0875 5.81211 15.0875 5.97461 14.3625C6.12461 13.7125 6.94961 10.225 6.94961 10.225C6.94961 10.225 6.69961 9.725 6.69961 8.9875C6.69961 7.825 7.37461 6.9625 8.19961 6.9625C8.91211 6.9625 9.24961 7.5 9.24961 8.1375C9.24961 8.85 8.79961 9.925 8.56211 10.9125C8.36211 11.7375 8.97461 12.4125 9.79961 12.4125C11.2746 12.4125 12.4121 10.85 12.4121 8.6C12.4121 6.6125 10.9746 5.2125 8.93711 5.2125C6.57461 5.2125 5.17461 6.9875 5.17461 8.825C5.17461 9.5375 5.44961 10.3125 5.79961 10.725C5.86211 10.8125 5.87461 10.875 5.86211 10.9625C5.79961 11.225 5.66211 11.7875 5.63711 11.9C5.59961 12.05 5.51211 12.0875 5.36211 12.0125C4.32461 11.525 3.67461 10.0125 3.67461 8.7875C3.67461 6.1625 5.58711 3.75 9.17461 3.75C12.0621 3.75 14.2996 5.8125 14.2996 8.55C14.2996 11.4125 12.4871 13.725 9.98711 13.725C9.14961 13.725 8.34961 13.2875 8.07461 12.775C8.07461 12.775 7.66211 14.3625 7.56211 14.75C7.37461 15.475 6.86211 16.375 6.52461 16.9375C7.29961 17.175 8.12461 17.3125 8.98711 17.3125C13.5871 17.3125 17.3121 13.5875 17.3121 8.9875C17.3121 4.4 13.5871 0.675003 8.98711 0.675003Z" fill="#BD081C"/>
</svg>
