<?xml version="1.0" standalone="no"?>
<!DOCTYPE svg PUBLIC "-//W3C//DTD SVG 20010904//EN"
 "http://www.w3.org/TR/2001/REC-SVG-20010904/DTD/svg10.dtd">
<svg version="1.0" xmlns="http://www.w3.org/2000/svg"
 width="256.000000pt" height="256.000000pt" viewBox="0 0 256.000000 256.000000"
 preserveAspectRatio="xMidYMid meet">
<metadata>
Created by potrace 1.14, written by Peter Selinger 2001-2017
</metadata>
<g transform="translate(0.000000,256.000000) scale(0.100000,-0.100000)"
fill="#000000" stroke="none">
<path d="M1227 2554 c-1 -1 -38 -4 -81 -8 -44 -4 -83 -9 -88 -12 -5 -3 -25 -8
-46 -10 -20 -3 -46 -8 -57 -11 -11 -4 -22 -8 -25 -8 -3 -1 -12 -4 -20 -8 -8
-3 -34 -11 -57 -17 -24 -6 -43 -14 -43 -19 0 -4 -6 -8 -12 -8 -7 0 -31 -8 -53
-18 -22 -10 -43 -17 -47 -17 -5 1 -8 -2 -8 -8 0 -5 -4 -10 -10 -10 -5 0 -33
-14 -62 -32 -128 -77 -258 -196 -347 -314 -28 -38 -56 -74 -61 -81 -16 -19
-110 -203 -104 -203 2 0 -1 -10 -8 -22 -7 -13 -13 -25 -13 -28 -1 -3 -11 -35
-23 -72 -19 -59 -25 -91 -47 -218 -7 -39 -8 -237 -1 -290 11 -93 52 -269 65
-280 3 -3 7 -13 9 -22 1 -9 15 -43 30 -75 14 -32 27 -60 27 -63 1 -5 13 -25
73 -120 90 -141 276 -322 392 -382 14 -7 27 -16 30 -19 7 -8 157 -80 172 -83
7 -1 22 -7 34 -14 11 -6 33 -13 47 -16 15 -2 30 -7 35 -10 5 -3 19 -7 33 -10
13 -2 44 -9 69 -14 169 -39 381 -32 583 19 43 11 86 24 95 28 9 5 28 13 42 19
202 81 394 223 523 387 26 33 52 65 57 72 6 7 10 14 10 17 0 3 13 24 29 48 39
58 93 176 124 273 24 73 31 104 42 175 26 170 23 314 -9 477 -9 44 -40 148
-45 153 -3 3 -7 14 -9 25 -6 37 -84 189 -136 265 -202 297 -503 489 -854 546
-77 12 -247 24 -255 18z"/>
</g>
</svg>
